<svg width="121" height="121" viewBox="0 0 121 121" fill="none" xmlns="http://www.w3.org/2000/svg">
    <path d="M95.7917 46.8875V20.1667H80.6667V33.275L60.5 15.125L10.0833 60.5H25.2083V100.833H50.4167V70.5833H70.5833V100.833H95.7917V60.5H110.917L95.7917 46.8875ZM50.4167 50.4167C50.4167 44.8708 54.9542 40.3333 60.5 40.3333C66.0458 40.3333 70.5833 44.8708 70.5833 50.4167H50.4167Z" fill="#F35555"/>
    <path d="M57.5 67.25H48V62.5C48 59.8875 45.8625 57.75 43.25 57.75H33.75C31.1375 57.75 29 59.8875 29 62.5V67.25H19.5C16.8875 67.25 14.75 69.3875 14.75 72V100.5C14.75 103.113 16.8875 105.25 19.5 105.25H57.5C60.1125 105.25 62.25 103.113 62.25 100.5V72C62.25 69.3875 60.1125 67.25 57.5 67.25ZM33.75 62.5H43.25V67.25H33.75V62.5ZM48 88.625H40.875V95.75H36.125V88.625H29V83.875H36.125V76.75H40.875V83.875H48V88.625Z" fill="white"/>
</svg>